<svg width="215" height="27" viewBox="0 0 215 27" fill="none" xmlns="http://www.w3.org/2000/svg">
<path d="M5.58544 6.06742V18.6633C5.58544 19.8428 6.09728 20.1321 7.76635 20.1321C11.3048 20.1321 14.3536 18.5965 14.3536 13.6561C14.3536 10.5628 13.3522 8.44862 11.9501 7.2469C10.8819 6.33447 9.72472 6.06742 7.14323 6.06742H5.58544ZM0.934308 21.0668V20.3991C2.38083 20.3769 2.78141 19.8428 2.78141 18.5965V7.69198C2.78141 6.44574 2.38083 5.91164 0.934308 5.88939V5.22176C1.62419 5.26627 2.46985 5.28853 3.53805 5.28853C5.49642 5.28853 7.45479 5.22176 9.32415 5.22176C14.9767 5.22176 17.6472 8.67117 17.6472 13.3668C17.6472 15.748 16.3565 21.0668 8.54525 21.0668C6.85393 21.0668 5.09585 21 3.31551 21C2.38083 21 1.55743 21.0223 0.934308 21.0668ZM27.4264 18.463L27.5599 20.1988C26.4249 20.9555 25.1565 21.2225 23.6209 21.2225C19.9935 21.2225 18.3467 18.8636 18.3467 16.2821C18.3467 12.5211 20.9949 10.8966 23.6209 10.8966C25.3345 10.8966 27.6267 11.987 27.6267 15.7258H21.0617C21.0839 18.9971 23.0868 20.3769 24.5333 20.3769C25.5348 20.3769 26.514 19.9095 27.4264 18.463ZM21.0617 15.0581H24.9117C24.9117 12.944 24.6669 11.5642 23.0868 11.5642C21.351 11.5642 21.0839 13.2555 21.0617 15.0581ZM27.9036 21.0668V20.3991H28.0817C28.7715 20.3991 29.1721 20.0653 29.1721 19.3532V6.51251C29.1721 5.86714 29.0163 5.60008 28.4377 5.60008C28.1929 5.60008 27.9926 5.64459 27.8146 5.6891V5.02147C29.1499 4.8657 30.3961 4.53188 31.7091 4.04229V19.3532C31.7091 20.0653 32.1097 20.3991 32.7996 20.3991H32.9776V21.0668C32.2655 21.0445 31.1305 21 30.4406 21C29.7507 21 28.6158 21.0445 27.9036 21.0668ZM33.096 21.0668V20.3991H33.274C33.9639 20.3991 34.3645 20.0653 34.3645 19.3532V6.51251C34.3645 5.86714 34.2087 5.60008 33.6301 5.60008C33.3853 5.60008 33.185 5.64459 33.007 5.6891V5.02147C34.3422 4.8657 35.5885 4.53188 36.9015 4.04229V12.7659C38.8153 11.2972 39.8613 10.8966 40.8182 10.8966C42.2647 10.8966 43.4887 11.7422 43.4887 13.8341V19.3977C43.4887 20.1988 44.0006 20.3991 44.8462 20.3991V21.0668C44.2008 21.0445 42.9324 21 42.1535 21C41.3746 21 40.1061 21.0445 39.4607 21.0668V20.3991C40.6179 20.3991 40.9517 20.2211 40.9517 18.9526V14.1234C40.9517 12.5657 40.0171 12.3654 39.3272 12.3654C38.9488 12.3654 38.0809 12.5434 36.9015 13.5226V19.3532C36.9015 20.0653 37.302 20.3991 37.9919 20.3991H38.17V21.0668C37.4578 21.0445 36.3229 21 35.633 21C34.9431 21 33.8081 21.0445 33.096 21.0668ZM44.8733 21.0668V20.3991H45.0514C45.7412 20.3991 46.1418 20.0653 46.1418 19.3532V13.6561C46.1418 13.0552 45.986 12.7882 45.4074 12.7882C45.2739 12.7882 45.0291 12.8327 44.7843 12.9217V12.2096C45.3407 12.1206 47.4993 11.4975 48.6788 10.8966V19.3532C48.6788 20.0653 49.0794 20.3991 49.7693 20.3991H49.9473V21.0668C49.2352 21.0445 48.1002 21 47.4103 21C46.7204 21 45.5855 21.0445 44.8733 21.0668ZM45.7635 7.42493C45.7635 6.55702 46.4534 5.86714 47.3213 5.86714C48.1892 5.86714 48.8791 6.55702 48.8791 7.42493C48.8791 8.29284 48.1892 8.98273 47.3213 8.98273C46.4534 8.98273 45.7635 8.29284 45.7635 7.42493Z" fill="#CB5957"/>
<path d="M51.6564 21.3597L58.333 4.76935H60.2214L53.5448 21.3597H51.6564ZM59.9442 21.3597L66.6208 4.76935H68.5091L61.8326 21.3597H59.9442Z" fill="#CB5957"/>
<path d="M70.0154 21.1957V20.528C71.4619 20.5058 71.8625 19.9717 71.8625 18.7255V7.82089C71.8625 6.57465 71.4619 6.04055 70.0154 6.0183V5.35067C70.772 5.39518 71.8625 5.41743 72.7972 5.41743C73.9766 5.41743 75.1561 5.35067 76.3356 5.35067C80.6974 5.35067 82.2329 7.28679 82.2329 9.84602C82.2329 12.4275 80.5416 13.9853 76.4468 13.9853C75.8015 13.9853 75.0226 13.963 74.6665 13.9185V18.7255C74.6665 19.9717 75.0671 20.5058 76.5136 20.528V21.1957C74.7333 21.1512 73.9766 21.1289 73.2645 21.1289C72.5524 21.1289 71.7957 21.1512 70.0154 21.1957ZM74.6665 6.10731V12.9839C75.0893 13.0729 75.6902 13.1396 76.1353 13.1396C78.1382 13.1396 79.3399 12.2272 79.3399 10.0686C79.3399 8.42175 78.5165 6.0183 75.6234 6.0183C75.2229 6.0183 74.9781 6.04055 74.6665 6.10731ZM91.9469 19.4598V20.1275C91.6798 20.1275 89.4989 20.9509 88.6533 21.3514C88.4307 20.9954 88.3195 20.4613 88.2972 20.1275C87.0065 21.0176 85.649 21.3514 84.8256 21.3514C83.5126 21.3514 82.3553 20.172 82.3553 19.0815C82.3553 17.1454 84.1579 16.2552 88.1637 15.7656V13.696C88.1637 12.4275 87.2513 11.9602 86.4279 11.9602C85.7825 11.9602 85.1149 12.1827 85.1149 13.0729C85.1149 13.2954 85.2261 13.696 85.4264 14.1188L82.9339 15.1203C82.6669 14.7197 82.5779 14.3636 82.5779 13.963C82.5779 12.2495 85.4709 11.0255 87.7186 11.0255C88.9871 11.0255 90.7007 11.9379 90.7007 14.0521V19.1038C90.7007 19.5934 90.8342 19.6824 91.168 19.6824C91.2793 19.6824 91.4351 19.6601 91.9469 19.4598ZM88.1637 18.7477V16.3443C86.2276 16.5445 85.0703 17.457 85.0703 18.4361C85.0703 19.4376 85.649 20.0607 86.6059 20.0607C87.1845 20.0607 87.8076 19.9049 88.2082 19.5934C88.1859 19.3931 88.1637 19.0593 88.1637 18.7477ZM98.8779 5.84026V5.17264C99.8348 5.17264 101.927 4.63853 102.995 4.1712V19.3041C102.995 19.7491 103.173 19.9494 103.574 19.9494C103.818 19.9494 103.996 19.8604 104.241 19.7269V20.3945C103.596 20.3945 101.66 21.1289 100.858 21.485C100.703 21.2179 100.525 20.7061 100.458 20.3278C99.5455 20.9731 98.4105 21.3514 97.2756 21.3514C94.7831 21.3514 92.6244 19.3041 92.6244 16.6113C92.6244 13.518 94.8276 11.0255 97.7652 11.0255C99.0114 11.0255 99.5455 11.1368 100.458 11.4928V6.44113C100.458 6.04055 100.302 5.75125 99.5677 5.75125C99.2562 5.75125 99.1004 5.7735 98.8779 5.84026ZM100.458 19.6601V12.6055C99.6345 11.9602 98.9224 11.6931 97.9877 11.6931C96.2741 11.6931 95.2504 13.2509 95.2504 15.4096C95.2504 17.5905 96.697 20.0607 98.8779 20.0607C99.6123 20.0607 100.102 19.8159 100.458 19.6601ZM114.451 18.5919L114.584 20.3278C113.449 21.0844 112.181 21.3514 110.645 21.3514C107.018 21.3514 105.371 18.9925 105.371 16.411C105.371 12.6501 108.019 11.0255 110.645 11.0255C112.359 11.0255 114.651 12.1159 114.651 15.8547H108.086C108.108 19.126 110.111 20.5058 111.558 20.5058C112.559 20.5058 113.538 20.0384 114.451 18.5919ZM108.086 15.187H111.936C111.936 13.0729 111.691 11.6931 110.111 11.6931C108.375 11.6931 108.108 13.3844 108.086 15.187ZM115.484 21.1957V20.528H115.662C116.352 20.528 116.753 20.1942 116.753 19.4821V6.64141C116.753 5.99604 116.597 5.72899 116.018 5.72899C115.774 5.72899 115.573 5.7735 115.395 5.81801V5.15038C116.731 4.9946 117.977 4.66079 119.29 4.1712V19.4821C119.29 20.1942 119.69 20.528 120.38 20.528H120.558V21.1957C119.846 21.1734 118.711 21.1289 118.021 21.1289C117.331 21.1289 116.197 21.1734 115.484 21.1957ZM137.234 6.3076V10.2911H136.655C136.166 7.0865 133.451 5.90703 130.78 5.90703C127.82 5.90703 124.95 8.24372 124.95 12.561C124.95 16.7448 127.353 20.5503 131.203 20.5503C132.872 20.5503 135.476 19.5711 137.39 16.5445L137.59 19.1705C135.253 20.8619 132.872 21.485 130.491 21.485C122.791 21.485 121.656 15.5208 121.656 13.0951C121.656 9.48995 124.215 5.06136 131.136 5.06136C132.538 5.06136 135.12 5.46194 137.234 6.3076ZM141.282 14.8087C141.282 16.5445 141.794 20.5948 144.308 20.5948C146.111 20.5948 146.489 19.1928 146.489 17.8575C146.489 15.9214 146 11.7821 143.574 11.7821C141.482 11.7821 141.282 13.3844 141.282 14.8087ZM138.656 16.411C138.656 12.6501 141.304 11.0255 143.93 11.0255C146.556 11.0255 149.204 12.6501 149.204 16.411C149.204 18.9925 147.291 21.3514 143.93 21.3514C140.303 21.3514 138.656 18.7255 138.656 16.411ZM150.03 21.1957V20.528H150.208C150.898 20.528 151.298 20.1942 151.298 19.4821V6.64141C151.298 5.99604 151.142 5.72899 150.564 5.72899C150.319 5.72899 150.119 5.7735 149.941 5.81801V5.15038C151.276 4.9946 152.522 4.66079 153.835 4.1712V19.4821C153.835 20.1942 154.236 20.528 154.926 20.528H155.104V21.1957C154.392 21.1734 153.257 21.1289 152.567 21.1289C151.877 21.1289 150.742 21.1734 150.03 21.1957ZM155.778 21.1957V20.528H155.956C156.646 20.528 157.047 20.1942 157.047 19.4821V6.64141C157.047 5.99604 156.891 5.72899 156.313 5.72899C156.068 5.72899 155.867 5.7735 155.689 5.81801V5.15038C157.025 4.9946 158.271 4.66079 159.584 4.1712V19.4821C159.584 20.1942 159.984 20.528 160.674 20.528H160.852V21.1957C160.14 21.1734 159.005 21.1289 158.315 21.1289C157.626 21.1289 156.491 21.1734 155.778 21.1957ZM170.763 18.5919L170.896 20.3278C169.761 21.0844 168.493 21.3514 166.957 21.3514C163.33 21.3514 161.683 18.9925 161.683 16.411C161.683 12.6501 164.331 11.0255 166.957 11.0255C168.671 11.0255 170.963 12.1159 170.963 15.8547H164.398C164.42 19.126 166.423 20.5058 167.87 20.5058C168.871 20.5058 169.85 20.0384 170.763 18.5919ZM164.398 15.187H168.248C168.248 13.0729 168.003 11.6931 166.423 11.6931C164.687 11.6931 164.42 13.3844 164.398 15.187ZM180.587 11.5151L180.72 14.1411H180.208C180.053 13.2954 179.14 11.6931 177.315 11.6931C175.713 11.6931 174.578 12.9394 174.578 15.2315C174.578 17.4125 176.002 20.5058 178.161 20.5058C179.229 20.5058 180.275 19.7269 180.831 18.9035V20.4168C179.897 20.8841 178.628 21.3514 177.271 21.3514C173.599 21.3514 171.952 18.9925 171.952 16.411C171.952 12.6501 174.6 11.0255 177.271 11.0255C178.272 11.0255 179.563 11.1813 180.587 11.5151ZM182.921 18.4139V12.2717H181.118V11.6041C182.253 10.9365 184.479 9.20065 185.458 7.97667V11.248H188.484L188.128 12.2717H185.458V18.6587C185.458 19.3263 185.769 19.8827 186.548 19.8827C187.038 19.8827 187.55 19.5711 188.017 19.126L188.395 19.7491L185.97 21.2847C185.792 21.3292 185.614 21.3514 185.458 21.3514C184.301 21.3514 182.921 20.6616 182.921 18.4139ZM188.618 21.1957V20.528H188.796C189.486 20.528 189.887 20.1942 189.887 19.4821V13.785C189.887 13.1842 189.731 12.9171 189.152 12.9171C189.019 12.9171 188.774 12.9616 188.529 13.0506V12.3385C189.085 12.2495 191.244 11.6264 192.424 11.0255V19.4821C192.424 20.1942 192.824 20.528 193.514 20.528H193.692V21.1957C192.98 21.1734 191.845 21.1289 191.155 21.1289C190.465 21.1289 189.33 21.1734 188.618 21.1957ZM189.508 7.55384C189.508 6.68592 190.198 5.99604 191.066 5.99604C191.934 5.99604 192.624 6.68592 192.624 7.55384C192.624 8.42175 191.934 9.11163 191.066 9.11163C190.198 9.11163 189.508 8.42175 189.508 7.55384ZM193.677 11.8489V11.1813C194.589 11.2035 195.858 11.248 196.303 11.248C196.748 11.248 198.017 11.2035 198.929 11.1813V11.8489H198.595C198.083 11.8489 197.861 12.0714 197.861 12.4498C197.861 12.6501 197.861 12.7391 198.172 13.4735L200.042 17.9466L201.488 13.7405C201.688 13.1619 201.778 12.8058 201.778 12.5388C201.778 11.9379 201.533 11.8489 200.442 11.8489V11.1813C200.999 11.2035 201.8 11.248 202.445 11.248C203.024 11.248 203.691 11.2035 204.248 11.1813V11.8489C203.402 11.8712 203.068 12.4053 202.645 13.4067L199.33 21.3514H198.929L195.235 13.0506C194.767 12.0047 194.567 11.9379 193.677 11.8489ZM213.459 18.5919L213.592 20.3278C212.457 21.0844 211.189 21.3514 209.653 21.3514C206.026 21.3514 204.379 18.9925 204.379 16.411C204.379 12.6501 207.027 11.0255 209.653 11.0255C211.367 11.0255 213.659 12.1159 213.659 15.8547H207.094C207.116 19.126 209.119 20.5058 210.565 20.5058C211.567 20.5058 212.546 20.0384 213.459 18.5919ZM207.094 15.187H210.944C210.944 13.0729 210.699 11.6931 209.119 11.6931C207.383 11.6931 207.116 13.3844 207.094 15.187Z" fill="#CB5957"/>
</svg>
